<svg width="16" height="12" viewBox="0 0 16 12" fill="none" xmlns="http://www.w3.org/2000/svg">
<g filter="url(#filter0_d_297039_1167)">
<path d="M11.4456 0.255056C11.6184 0.089653 11.8483 -0.00178848 12.0869 2.65108e-05C12.3255 0.0018415 12.5541 0.0967713 12.7244 0.264784C12.8947 0.432797 12.9934 0.660752 12.9997 0.900549C13.006 1.14034 12.9194 1.37323 12.7582 1.55005L7.86357 7.70436C7.77941 7.79551 7.67782 7.86865 7.5649 7.91942C7.45198 7.97018 7.33003 7.99754 7.20636 7.99984C7.08268 8.00214 6.95981 7.97935 6.8451 7.93282C6.73038 7.88629 6.62618 7.81698 6.53872 7.72903L3.29283 4.46564C3.20243 4.38096 3.12993 4.27884 3.07965 4.16537C3.02936 4.05191 3.00232 3.92942 3.00014 3.80522C2.99796 3.68102 3.02069 3.55765 3.06696 3.44248C3.11323 3.3273 3.18211 3.22267 3.26947 3.13483C3.35684 3.047 3.4609 2.97775 3.57547 2.93123C3.69003 2.88471 3.81273 2.86186 3.93627 2.86405C4.0598 2.86624 4.18163 2.89343 4.29449 2.94398C4.40734 2.99454 4.50892 3.06743 4.59315 3.15831L7.16189 5.73967L11.4223 0.28219C11.4299 0.272694 11.4381 0.263635 11.4468 0.255056H11.4456Z" fill="#F4F4FD"/>
</g>
<defs>
<filter id="filter0_d_297039_1167" x="-1" y="0" width="18" height="16" filterUnits="userSpaceOnUse" color-interpolation-filters="sRGB">
<feFlood flood-opacity="0" result="BackgroundImageFix"/>
<feColorMatrix in="SourceAlpha" type="matrix" values="0 0 0 0 0 0 0 0 0 0 0 0 0 0 0 0 0 0 127 0" result="hardAlpha"/>
<feOffset dy="4"/>
<feGaussianBlur stdDeviation="2"/>
<feComposite in2="hardAlpha" operator="out"/>
<feColorMatrix type="matrix" values="0 0 0 0 0 0 0 0 0 0 0 0 0 0 0 0 0 0 0.25 0"/>
<feBlend mode="normal" in2="BackgroundImageFix" result="effect1_dropShadow_297039_1167"/>
<feBlend mode="normal" in="SourceGraphic" in2="effect1_dropShadow_297039_1167" result="shape"/>
</filter>
</defs>
</svg>
